<svg width="824" height="162" viewBox="0 0 824 162" fill="none" xmlns="http://www.w3.org/2000/svg">
<path d="M535 40L520.278 14.5L549.722 14.5L535 40Z" fill="#13CE66"/>
<path d="M139.161 144.08L161.08 122.161L169.103 152.103L139.161 144.08Z" fill="#FDD54B"/>
<rect x="803" y="71" width="21" height="21" fill="#FDD54B"/>
<rect y="13" width="8" height="8" fill="#16DBCC"/>
<rect x="667" y="17" width="17" height="17" fill="#FF9E7C"/>
<rect x="606" y="128.895" width="35.2071" height="35.2071" transform="rotate(-45 606 128.895)" fill="#16DBCC"/>
<rect x="303.948" y="26.9476" width="19.7249" height="19.7249" transform="rotate(-45 303.948 26.9476)" fill="#396AFF"/>
<circle cx="736.5" cy="48.5" r="22.5" fill="#FE82A1"/>
<path fill-rule="evenodd" clip-rule="evenodd" d="M100 0C101.15 7.36496 107.522 13 115.21 13C122.897 13 129.269 7.36496 130.419 0H100Z" fill="#FF9E7C"/>
<path d="M11 99.5001L11.0971 99.9351L11.1943 100.37L11.2914 100.803L11.3885 101.236L11.4857 101.667L11.5828 102.096L11.6799 102.523L11.7771 102.947L11.8742 103.368L11.9713 103.785L12.0685 104.199L12.1656 104.608L12.2627 105.013L12.3599 105.413L12.457 105.807L12.5541 106.196L12.6513 106.579L12.7484 106.955L12.8455 107.325L12.9427 107.688L13.0398 108.043L13.1369 108.39L13.2341 108.73L13.3312 109.061L13.4283 109.384L13.5255 109.698L13.6226 110.002L13.7197 110.298L13.8169 110.583L13.914 110.858L14.0111 111.124L14.1083 111.379L14.2054 111.623L14.3025 111.856L14.3997 112.078L14.4968 112.289L14.5939 112.488L14.6911 112.675L14.7882 112.851L14.8854 113.015L14.9825 113.166L15.0796 113.306L15.1768 113.432L15.2739 113.547L15.371 113.648L15.4682 113.737L15.5653 113.813L15.6624 113.876L15.7596 113.927L15.8567 113.964L15.9538 113.988L16.051 113.999L16.1481 113.998L16.2452 113.983L16.3424 113.955L16.4395 113.914L16.5366 113.86L16.6338 113.793L16.7309 113.714L16.828 113.621L16.9252 113.516L17.0223 113.398L17.1194 113.268L17.2166 113.125L17.3137 112.97L17.4108 112.803L17.508 112.624L17.6051 112.433L17.7022 112.231L17.7994 112.017L17.8965 111.792L17.9936 111.555L18.0908 111.308L18.1879 111.05L18.285 110.782L18.3822 110.504L18.4793 110.216L18.5764 109.918L18.6736 109.611L18.7707 109.294L18.8678 108.969L18.965 108.636L19.0621 108.294L19.1592 107.944L19.2564 107.587L19.3535 107.222L19.4506 106.85L19.5478 106.472L19.6449 106.088L19.742 105.697L19.8392 105.301L19.9363 104.9L20.0334 104.494L20.1306 104.083L20.2277 103.669L20.3248 103.25L20.422 102.828L20.5191 102.403L20.6162 101.976L20.7134 101.546L20.8105 101.115L20.9076 100.682L21.0048 100.248L21.1019 99.8132L21.199 99.3782L21.2962 98.9434L21.3933 98.509L21.4904 98.0755L21.5876 97.6433L21.6847 97.2128L21.7818 96.7843L21.879 96.3583L21.9761 95.9351L22.0732 95.5151L22.1704 95.0987L22.2675 94.6863L22.3646 94.2782L22.4618 93.8748L22.5589 93.4764L22.6561 93.0835L22.7532 92.6964L22.8503 92.3153L22.9475 91.9408L23.0446 91.573L23.1417 91.2124L23.2389 90.8592L23.336 90.5139L23.4331 90.1766L23.5303 89.8476L23.6274 89.5274L23.7245 89.2162L23.8217 88.9142L23.9188 88.6217L24.0159 88.339L24.1131 88.0664L24.2102 87.8041L24.3073 87.5522L24.4045 87.3112L24.5016 87.0811L24.5987 86.8622L24.6959 86.6546L24.793 86.4586L24.8901 86.2744L24.9873 86.102L25.0844 85.9417L25.1815 85.7936L25.2787 85.6579L25.3758 85.5346L25.4729 85.4239L25.5701 85.3258L25.6672 85.2405L25.7643 85.168L25.8615 85.1085L25.9586 85.0618L26.0557 85.0282L26.1529 85.0076L26.25 85L26.3471 85.0055L26.4443 85.024L26.5414 85.0556L26.6385 85.1002L26.7357 85.1577L26.8328 85.2281L26.9299 85.3114L27.0271 85.4074L27.1242 85.5161L27.2213 85.6374L27.3185 85.7712L27.4156 85.9173L27.5127 86.0757L27.6099 86.2461L27.707 86.4285L27.8041 86.6226L27.9013 86.8283L27.9984 87.0455L28.0955 87.2738L28.1927 87.5131L28.2898 87.7632L28.3869 88.0239L28.4841 88.2949L28.5812 88.576L28.6783 88.867L28.7755 89.1674L28.8726 89.4772L28.9697 89.7961L29.0669 90.1236L29.164 90.4596L29.2611 90.8037L29.3583 91.1557L29.4554 91.5151L29.5525 91.8818L29.6497 92.2552L29.7468 92.6353L29.8439 93.0215L29.9411 93.4135L30.0382 93.811L30.1353 94.2136L30.2325 94.621L30.3296 95.0328L30.4268 95.4486L30.5239 95.868L30.621 96.2907L30.7182 96.7163L30.8153 97.1444L30.9124 97.5746L31.0096 98.0066L31.1067 98.4399L31.2038 98.8741L31.301 99.3089L31.3981 99.7439L31.4952 100.179L31.5924 100.613L31.6895 101.046L31.7866 101.478L31.8838 101.908L31.9809 102.336L32.078 102.761L32.1752 103.183L32.2723 103.602L32.3694 104.018L32.4666 104.429L32.5637 104.836L32.6608 105.238L32.758 105.634L32.8551 106.026L32.9522 106.411L33.0494 106.791L33.1465 107.163L33.2436 107.529L33.3408 107.888L33.4379 108.239L33.535 108.582L33.6322 108.917L33.7293 109.243L33.8264 109.561L33.9236 109.87L34.0207 110.169L34.1178 110.459L34.215 110.739L34.3121 111.008L34.4092 111.268L34.5064 111.517L34.6035 111.755L34.7006 111.982L34.7978 112.197L34.8949 112.402L34.992 112.594L35.0892 112.775L35.1863 112.944L35.2834 113.101L35.3806 113.246L35.4777 113.378L35.5748 113.498L35.672 113.605L35.7691 113.7L35.8662 113.781L35.9634 113.85L36.0605 113.906L36.1576 113.949L36.2548 113.979L36.3519 113.996L36.449 114L36.5462 113.991L36.6433 113.969L36.7404 113.933L36.8376 113.885L36.9347 113.824L37.0318 113.75L37.129 113.663L37.2261 113.564L37.3232 113.451L37.4204 113.327L37.5175 113.189L37.6146 113.04L37.7118 112.878L37.8089 112.704L37.9061 112.519L38.0032 112.321L38.1003 112.112L38.1975 111.892L38.2946 111.66L38.3917 111.418L38.4889 111.165L38.586 110.901L38.6831 110.628L38.7803 110.344L38.8774 110.05L38.9745 109.747L39.0717 109.435L39.1688 109.113L39.2659 108.783L39.3631 108.445L39.4602 108.099L39.5573 107.745L39.6545 107.383L39.7516 107.015L39.8487 106.639L39.9459 106.257L40.043 105.869L40.1401 105.476L40.2373 105.077L40.3344 104.673L40.4315 104.264L40.5287 103.851L40.6258 103.434L40.7229 103.014L40.8201 102.591L40.9172 102.164L41.0143 101.735L41.1115 101.305L41.2086 100.872L41.3057 100.439L41.4029 100.004L41.5 99.5694L41.5971 99.1344L41.6943 98.6998L41.7914 98.2659L41.8885 97.8331L41.9857 97.4018L42.0828 96.9724L42.1799 96.5452L42.2771 96.1207L42.3742 95.6993L42.4713 95.2813L42.5685 94.8671L42.6656 94.457L42.7627 94.0515L42.8599 93.6509L42.957 93.2555L43.0541 92.8658L43.1513 92.482L43.2484 92.1046L43.3455 91.7338L43.4427 91.37L43.5398 91.0135L43.6369 90.6647L43.7341 90.3238L43.8312 89.9912L43.9283 89.6671L44.0255 89.3518L44.1226 89.0458L44.2197 88.7491L44.3169 88.4621L44.414 88.185L44.5111 87.9181L44.6083 87.6616L44.7054 87.4158L44.8025 87.1808L44.8997 86.957L44.9968 86.7444L45.0939 86.5433L45.1911 86.3539L45.2882 86.1763L45.3853 86.0107L45.4825 85.8572L45.5796 85.716L45.6768 85.5872L45.7739 85.471L45.871 85.3673L45.9682 85.2764L46.0653 85.1983L46.1624 85.133L46.2596 85.0807L46.3567 85.0414L46.4538 85.015L46.551 85.0017L46.6481 85.0015L46.7452 85.0143L46.8424 85.0401L46.9395 85.079L47.0366 85.1308L47.1338 85.1956L47.2309 85.2732L47.328 85.3636L47.4252 85.4668L47.5223 85.5826L47.6194 85.7109L47.7166 85.8516L47.8137 86.0046L47.9108 86.1697L48.008 86.3469L48.1051 86.5359L48.2022 86.7365L48.2994 86.9486L48.3965 87.1721L48.4936 87.4066L48.5908 87.652L48.6879 87.9081L48.785 88.1746L48.8822 88.4513L48.9793 88.7379L49.0764 89.0342L49.1736 89.34L49.2707 89.6548L49.3678 89.9786L49.465 90.3109L49.5621 90.6515L49.6592 91L49.7564 91.3562L49.8535 91.7197L49.9506 92.0903L50.0478 92.4675L50.1449 92.851L50.242 93.2405L50.3392 93.6356L50.4363 94.0361L50.5334 94.4414L50.6306 94.8513L50.7277 95.2653L50.8248 95.6832L50.922 96.1045L51.0191 96.5289L51.1162 96.956L51.2134 97.3853L51.3105 97.8165L51.4076 98.2493L51.5048 98.6832L51.6019 99.1178L51.699 99.5528L51.7962 99.9877L51.8933 100.422L51.9904 100.856L52.0876 101.288L52.1847 101.719L52.2818 102.148L52.379 102.574L52.4761 102.998L52.5732 103.418L52.6704 103.835L52.7675 104.249L52.8646 104.657L52.9618 105.062L53.0589 105.461L53.1561 105.855L53.2532 106.243L53.3503 106.625L53.4475 107L53.5446 107.369L53.6417 107.731L53.7389 108.085L53.836 108.432L53.9331 108.771L54.0303 109.101L54.1274 109.422L54.2245 109.735L54.3217 110.039L54.4188 110.333L54.5159 110.617L54.6131 110.891L54.7102 111.155L54.8073 111.409L54.9045 111.651L55.0016 111.883L55.0987 112.104L55.1959 112.313L55.293 112.511L55.3901 112.697L55.4873 112.872L55.5844 113.034L55.6815 113.184L55.7787 113.322L55.8758 113.447L55.9729 113.56L56.0701 113.66L56.1672 113.747L56.2643 113.822L56.3615 113.883L56.4586 113.932L56.5557 113.968L56.6529 113.99L56.75 114L56.8471 113.996L56.9443 113.98L57.0414 113.951L57.1385 113.908L57.2357 113.853L57.3328 113.784L57.4299 113.703L57.5271 113.609L57.6242 113.502L57.7213 113.383L57.8185 113.251L57.9156 113.107L58.0127 112.951L58.1099 112.782L58.207 112.602L58.3041 112.409L58.4013 112.205L58.4984 111.99L58.5955 111.764L58.6927 111.526L58.7898 111.278L58.8869 111.019L58.9841 110.749L59.0812 110.47L59.1783 110.18L59.2755 109.881L59.3726 109.573L59.4697 109.256L59.5669 108.929L59.664 108.595L59.7611 108.252L59.8583 107.901L59.9554 107.543L60.0525 107.177L60.1497 106.805L60.2468 106.426L60.3439 106.041L60.4411 105.65L60.5382 105.253L60.6353 104.851L60.7325 104.444L60.8296 104.033L60.9267 103.618L61.0239 103.199L61.121 102.777L61.2182 102.352L61.3153 101.924L61.4124 101.494L61.5096 101.063L61.6067 100.629L61.7038 100.195L61.801 99.7606L61.8981 99.3256L61.9952 98.8908L62.0924 98.4565L62.1895 98.0231L62.2866 97.5911L62.3838 97.1608L62.4809 96.7326L62.578 96.307L62.6752 95.8841L62.7723 95.4646L62.8694 95.0486L62.9666 94.6367L63.0637 94.2291L63.1608 93.8263L63.258 93.4286L63.3551 93.0364L63.4522 92.6499L63.5494 92.2697L63.6465 91.8959L63.7436 91.529L63.8408 91.1693L63.9379 90.817L64.035 90.4726L64.1322 90.1363L64.2293 89.8084L64.3264 89.4893L64.4236 89.1791L64.5207 88.8783L64.6178 88.587L64.715 88.3055L64.8121 88.0341L64.9092 87.773L65.0064 87.5225L65.1035 87.2827L65.2006 87.054L65.2978 86.8364L65.3949 86.6303L65.492 86.4357L65.5892 86.2529L65.6863 86.082L65.7834 85.9232L65.8806 85.7766L65.9777 85.6423L66.0748 85.5205L66.172 85.4113L66.2691 85.3148L66.3662 85.231L66.4634 85.1601L66.5605 85.1021L66.6576 85.0571L66.7548 85.025L66.8519 85.006L66.949 85L67.0462 85.0071L67.1433 85.0272L67.2404 85.0603L67.3376 85.1064L67.4347 85.1655L67.5318 85.2375L67.629 85.3223L67.7261 85.4199L67.8232 85.5301L67.9204 85.6529L68.0175 85.7882L68.1146 85.9358L68.2118 86.0957L68.3089 86.2676L68.406 86.4514L68.5032 86.6469L68.6003 86.854L68.6975 87.0725L68.7946 87.3022L68.8917 87.5428L68.9889 87.7942L69.086 88.0562L69.1831 88.3284L69.2803 88.6107L69.3774 88.9028L69.4745 89.2044L69.5717 89.5153L69.6688 89.8352L69.7659 90.1638L69.8631 90.5008L69.9602 90.8459L70.0573 91.1987L70.1545 91.5591L70.2516 91.9266L70.3487 92.3009L70.4459 92.6817L70.543 93.0686L70.6401 93.4613L70.7373 93.8594L70.8344 94.2627L70.9315 94.6706L71.0287 95.0829L71.1258 95.4991L71.2229 95.919L71.3201 96.3421L71.4172 96.768L71.5143 97.1963L71.6115 97.6268L71.7086 98.0589L71.8057 98.4924L71.9029 98.9267L72 99.3616" stroke="#FE82A1" stroke-width="2"/>
<path d="M429 138.5L429.051 138.725L429.102 138.95L429.153 139.174L429.204 139.398L429.255 139.621L429.306 139.843L429.357 140.064L429.408 140.283L429.459 140.501L429.51 140.716L429.561 140.93L429.611 141.142L429.662 141.352L429.713 141.558L429.764 141.762L429.815 141.963L429.866 142.161L429.917 142.356L429.968 142.547L430.019 142.735L430.07 142.919L430.121 143.098L430.172 143.274L430.223 143.445L430.274 143.612L430.325 143.775L430.376 143.932L430.427 144.085L430.478 144.233L430.529 144.375L430.58 144.512L430.631 144.644L430.682 144.77L430.732 144.891L430.783 145.006L430.834 145.115L430.885 145.218L430.936 145.315L430.987 145.406L431.038 145.49L431.089 145.569L431.14 145.641L431.191 145.706L431.242 145.765L431.293 145.818L431.344 145.864L431.395 145.903L431.446 145.936L431.497 145.962L431.548 145.981L431.599 145.994L431.65 146L431.701 145.999L431.752 145.991L431.803 145.977L431.854 145.955L431.904 145.928L431.955 145.893L432.006 145.852L432.057 145.804L432.108 145.75L432.159 145.689L432.21 145.621L432.261 145.547L432.312 145.467L432.363 145.381L432.414 145.288L432.465 145.19L432.516 145.085L432.567 144.974L432.618 144.858L432.669 144.736L432.72 144.608L432.771 144.474L432.822 144.336L432.873 144.192L432.924 144.043L432.975 143.889L433.025 143.73L433.076 143.566L433.127 143.398L433.178 143.225L433.229 143.049L433.28 142.868L433.331 142.683L433.382 142.494L433.433 142.302L433.484 142.106L433.535 141.907L433.586 141.705L433.637 141.501L433.688 141.293L433.739 141.083L433.79 140.871L433.841 140.656L433.892 140.44L433.943 140.222L433.994 140.002L434.045 139.781L434.096 139.558L434.146 139.335L434.197 139.111L434.248 138.887L434.299 138.662L434.35 138.437L434.401 138.212L434.452 137.987L434.503 137.763L434.554 137.54L434.605 137.317L434.656 137.095L434.707 136.875L434.758 136.656L434.809 136.439L434.86 136.223L434.911 136.01L434.962 135.799L435.013 135.59L435.064 135.384L435.115 135.181L435.166 134.981L435.217 134.784L435.268 134.59L435.318 134.4L435.369 134.213L435.42 134.031L435.471 133.852L435.522 133.678L435.573 133.507L435.624 133.342L435.675 133.181L435.726 133.025L435.777 132.873L435.828 132.727L435.879 132.586L435.93 132.45L435.981 132.32L436.032 132.195L436.083 132.076L436.134 131.963L436.185 131.856L436.236 131.754L436.287 131.659L436.338 131.57L436.389 131.487L436.439 131.411L436.49 131.34L436.541 131.277L436.592 131.219L436.643 131.169L436.694 131.124L436.745 131.087L436.796 131.056L436.847 131.032L436.898 131.015L436.949 131.004L437 131L437.051 131.003L437.102 131.012L437.153 131.029L437.204 131.052L437.255 131.082L437.306 131.118L437.357 131.161L437.408 131.211L437.459 131.267L437.51 131.33L437.561 131.399L437.611 131.474L437.662 131.556L437.713 131.645L437.764 131.739L437.815 131.839L437.866 131.946L437.917 132.058L437.968 132.176L438.019 132.3L438.07 132.429L438.121 132.564L438.172 132.704L438.223 132.85L438.274 133L438.325 133.156L438.376 133.316L438.427 133.481L438.478 133.65L438.529 133.824L438.58 134.002L438.631 134.184L438.682 134.37L438.732 134.56L438.783 134.753L438.834 134.949L438.885 135.149L438.936 135.352L438.987 135.557L439.038 135.766L439.089 135.976L439.14 136.189L439.191 136.404L439.242 136.621L439.293 136.84L439.344 137.06L439.395 137.282L439.446 137.504L439.497 137.728L439.548 137.952L439.599 138.176L439.65 138.401L439.701 138.626L439.752 138.851L439.803 139.076L439.854 139.3L439.904 139.523L439.955 139.745L440.006 139.967L440.057 140.187L440.108 140.405L440.159 140.622L440.21 140.837L440.261 141.049L440.312 141.26L440.363 141.468L440.414 141.673L440.465 141.875L440.516 142.075L440.567 142.271L440.618 142.464L440.669 142.653L440.72 142.838L440.771 143.02L440.822 143.197L440.873 143.371L440.924 143.54L440.975 143.704L441.025 143.864L441.076 144.018L441.127 144.168L441.178 144.313L441.229 144.453L441.28 144.587L441.331 144.716L441.382 144.839L441.433 144.956L441.484 145.068L441.535 145.173L441.586 145.273L441.637 145.367L441.688 145.454L441.739 145.535L441.79 145.61L441.841 145.678L441.892 145.74L441.943 145.796L441.994 145.845L442.045 145.887L442.096 145.923L442.146 145.951L442.197 145.974L442.248 145.989L442.299 145.998L442.35 146L442.401 145.995L442.452 145.984L442.503 145.966L442.554 145.941L442.605 145.909L442.656 145.871L442.707 145.826L442.758 145.774L442.809 145.716L442.86 145.652L442.911 145.581L442.962 145.503L443.013 145.42L443.064 145.33L443.115 145.234L443.166 145.132L443.217 145.024L443.268 144.91L443.318 144.79L443.369 144.665L443.42 144.534L443.471 144.397L443.522 144.256L443.573 144.109L443.624 143.957L443.675 143.8L443.726 143.639L443.777 143.472L443.828 143.302L443.879 143.127L443.93 142.948L443.981 142.764L444.032 142.577L444.083 142.387L444.134 142.193L444.185 141.995L444.236 141.795L444.287 141.591L444.338 141.385L444.389 141.176L444.439 140.964L444.49 140.751L444.541 140.535L444.592 140.318L444.643 140.099L444.694 139.878L444.745 139.656L444.796 139.433L444.847 139.21L444.898 138.986L444.949 138.761L445 138.536L445.051 138.311L445.102 138.086L445.153 137.862L445.204 137.638L445.255 137.415L445.306 137.193L445.357 136.972L445.408 136.752L445.459 136.534L445.51 136.318L445.561 136.104L445.611 135.892L445.662 135.682L445.713 135.475L445.764 135.27L445.815 135.069L445.866 134.87L445.917 134.675L445.968 134.483L446.019 134.295L446.07 134.11L446.121 133.93L446.172 133.754L446.223 133.582L446.274 133.414L446.325 133.251L446.376 133.093L446.427 132.939L446.478 132.791L446.529 132.647L446.58 132.509L446.631 132.377L446.682 132.25L446.732 132.128L446.783 132.012L446.834 131.902L446.885 131.798L446.936 131.7L446.987 131.608L447.038 131.523L447.089 131.443L447.14 131.37L447.191 131.304L447.242 131.244L447.293 131.19L447.344 131.143L447.395 131.103L447.446 131.069L447.497 131.042L447.548 131.021L447.599 131.008L447.65 131.001L447.701 131.001L447.752 131.007L447.803 131.021L447.854 131.041L447.904 131.068L447.955 131.101L448.006 131.141L448.057 131.188L448.108 131.241L448.159 131.301L448.21 131.368L448.261 131.44L448.312 131.52L448.363 131.605L448.414 131.697L448.465 131.794L448.516 131.898L448.567 132.008L448.618 132.123L448.669 132.245L448.72 132.372L448.771 132.504L448.822 132.642L448.873 132.785L448.924 132.933L448.975 133.087L449.025 133.245L449.076 133.408L449.127 133.575L449.178 133.747L449.229 133.923L449.28 134.103L449.331 134.288L449.382 134.476L449.433 134.667L449.484 134.862L449.535 135.061L449.586 135.262L449.637 135.467L449.688 135.674L449.739 135.883L449.79 136.095L449.841 136.31L449.892 136.526L449.943 136.744L449.994 136.963L450.045 137.184L450.096 137.406L450.146 137.629L450.197 137.853L450.248 138.078L450.299 138.302L450.35 138.527L450.401 138.752L450.452 138.977L450.503 139.201L450.554 139.425L450.605 139.648L450.656 139.87L450.707 140.09L450.758 140.309L450.809 140.527L450.86 140.742L450.911 140.956L450.962 141.168L451.013 141.377L451.064 141.583L451.115 141.787L451.166 141.988L451.217 142.185L451.268 142.379L451.318 142.57L451.369 142.757L451.42 142.941L451.471 143.12L451.522 143.295L451.573 143.466L451.624 143.632L451.675 143.794L451.726 143.951L451.777 144.103L451.828 144.25L451.879 144.392L451.93 144.529L451.981 144.66L452.032 144.785L452.083 144.905L452.134 145.019L452.185 145.128L452.236 145.23L452.287 145.326L452.338 145.416L452.389 145.5L452.439 145.578L452.49 145.649L452.541 145.714L452.592 145.772L452.643 145.824L452.694 145.869L452.745 145.908L452.796 145.94L452.847 145.965L452.898 145.983L452.949 145.995L453 146L453.051 145.998L453.102 145.99L453.153 145.974L453.204 145.952L453.255 145.924L453.306 145.888L453.357 145.846L453.408 145.798L453.459 145.743L453.51 145.681L453.561 145.613L453.611 145.538L453.662 145.457L453.713 145.37L453.764 145.277L453.815 145.177L453.866 145.072L453.917 144.96L453.968 144.843L454.019 144.72L454.07 144.592L454.121 144.458L454.172 144.319L454.223 144.174L454.274 144.024L454.325 143.87L454.376 143.71L454.427 143.546L454.478 143.377L454.529 143.204L454.58 143.027L454.631 142.845L454.682 142.66L454.732 142.471L454.783 142.278L454.834 142.082L454.885 141.883L454.936 141.681L454.987 141.476L455.038 141.268L455.089 141.057L455.14 140.845L455.191 140.63L455.242 140.413L455.293 140.195L455.344 139.975L455.395 139.754L455.446 139.532L455.497 139.308L455.548 139.084L455.599 138.86L455.65 138.635L455.701 138.41L455.752 138.185L455.803 137.96L455.854 137.736L455.904 137.513L455.955 137.29L456.006 137.069L456.057 136.848L456.108 136.63L456.159 136.413L456.21 136.198L456.261 135.984L456.312 135.774L456.363 135.565L456.414 135.36L456.465 135.157L456.516 134.957L456.567 134.76L456.618 134.567L456.669 134.377L456.72 134.191L456.771 134.009L456.822 133.831L456.873 133.657L456.924 133.487L456.975 133.322L457.025 133.162L457.076 133.006L457.127 132.855L457.178 132.71L457.229 132.569L457.28 132.434L457.331 132.305L457.382 132.181L457.433 132.062L457.484 131.95L457.535 131.843L457.586 131.743L457.637 131.648L457.688 131.56L457.739 131.478L457.79 131.402L457.841 131.332L457.892 131.269L457.943 131.213L457.994 131.163L458.045 131.12L458.096 131.083L458.146 131.053L458.197 131.03L458.248 131.013L458.299 131.003L458.35 131L458.401 131.004L458.452 131.014L458.503 131.031L458.554 131.055L458.605 131.086L458.656 131.123L458.707 131.167L458.758 131.217L458.809 131.274L458.86 131.338L458.911 131.408L458.962 131.484L459.013 131.567L459.064 131.656L459.115 131.751L459.166 131.852L459.217 131.959L459.268 132.072L459.318 132.191L459.369 132.315L459.42 132.445L459.471 132.581L459.522 132.722L459.573 132.868L459.624 133.019L459.675 133.175L459.726 133.336L459.777 133.501L459.828 133.671L459.879 133.845L459.93 134.024L459.981 134.206L460.032 134.393L460.083 134.583L460.134 134.776L460.185 134.973L460.236 135.173L460.287 135.377L460.338 135.582L460.389 135.791L460.439 136.002L460.49 136.215L460.541 136.431L460.592 136.648L460.643 136.867L460.694 137.087L460.745 137.308L460.796 137.531L460.847 137.755L460.898 137.979L460.949 138.203L461 138.428" stroke="#FDD54B" stroke-width="2"/>
</svg>
